<svg width="26" height="24" viewBox="0 0 26 24" fill="none" xmlns="http://www.w3.org/2000/svg">
<g clip-path="url(#clip0_46_53)">
<path fill-rule="evenodd" clip-rule="evenodd" d="M12.6027 1.69214L16.5168 0L18.6628 3.65329L22.8254 4.58355L22.4147 8.79952L25.2342 11.999L22.4249 15.1697L22.8254 19.4164L18.6874 20.3303L16.5168 24L12.6315 22.3058L8.71738 24L6.5714 20.3467L2.40883 19.4164L2.81954 15.1984L0 11.999L2.80928 8.82827L2.40883 4.58355L6.54676 3.66972L8.71738 0L12.6027 1.69214Z" fill="#0E9F6E"/>
<path d="M7.78712 13.3482C6.54061 12.0072 8.45453 10.0091 9.84069 11.2741C10.3294 11.7197 11.04 12.3707 11.5328 12.8122L15.3319 8.14444C16.6544 6.77676 18.7429 8.78515 17.4368 10.161L12.6643 15.8535C12.4033 16.1292 12.0454 16.2928 11.6661 16.3096C11.2868 16.3265 10.9158 16.1953 10.6313 15.9439C9.8222 15.1738 8.63524 14.0669 7.78712 13.3482Z" fill="white"/>
</g>
<defs>
<clipPath id="clip0_46_53">
<rect width="25.2342" height="24" fill="white"/>
</clipPath>
</defs>
</svg>
