<svg width="17" height="17" viewBox="0 0 17 17" fill="none" xmlns="http://www.w3.org/2000/svg">
<g clip-path="url(#clip0_46_50)">
<path fill-rule="evenodd" clip-rule="evenodd" d="M8.40181 1.62809L11.0112 0.5L12.4419 2.93553L15.2169 3.5557L14.9431 6.36635L16.8228 8.49932L14.9499 10.6131L15.2169 13.4443L12.4583 14.0535L11.0112 16.5L8.42098 15.3705L5.81159 16.5L4.38094 14.0645L1.60589 13.4443L1.8797 10.6323L0 8.49932L1.87285 6.38551L1.60589 3.5557L4.36451 2.94648L5.81159 0.5L8.40181 1.62809Z" fill="#014737"/>
<path d="M5.19146 9.39879C4.36045 8.5048 5.63639 7.17272 6.5605 8.01605C6.88633 8.31314 7.36002 8.74712 7.68859 9.04147L10.2213 5.92963C11.103 5.01785 12.4953 6.35678 11.6246 7.27403L8.44293 11.069C8.26891 11.2528 8.0303 11.3618 7.77743 11.3731C7.52456 11.3843 7.27722 11.2969 7.08758 11.1293C6.54818 10.6159 5.75687 9.87795 5.19146 9.39879Z" fill="white"/>
</g>
<defs>
<clipPath id="clip0_46_50">
<rect width="16.8228" height="16" fill="white" transform="translate(0 0.5)"/>
</clipPath>
</defs>
</svg>
